<?xml version="1.0" standalone="yes"?>

<svg version="1.1" viewBox="0.0 0.0 824.0 883.0" fill="none" stroke="none" stroke-linecap="square"
    stroke-miterlimit="10" xmlns="http://www.w3.org/2000/svg"><clipPath id="p.0"><path d="m0 0l824.0 0l0 883.0l-824.0 0l0 -883.0z" clip-rule="nonzero"></path></clipPath><g clip-path="url(#p.0)"><path fill="#000000" fill-opacity="0.0" d="m0 0l824.0 0l0 883.0l-824.0 0z" fill-rule="evenodd"></path><path fill="#000000" fill-opacity="0.0" d="m10.377953 441.5l173.97638 -347.95258l455.29138 0l173.97638 347.95258l-173.97638 347.95258l-455.29138 0z" fill-rule="evenodd"></path><path stroke="#434343" stroke-width="16.0" stroke-linejoin="round" stroke-linecap="butt" d="m10.377953 441.5l173.97638 -347.95258l455.29138 0l173.97638 347.95258l-173.97638 347.95258l-455.29138 0z" fill-rule="evenodd"></path><path fill="#434343" d="m43.236435 441.49475l159.74016 -319.48016l418.06302 0l159.74011 319.48016l-159.74011 319.48016l-418.06302 0z" fill-rule="evenodd"></path><path fill="#ffffff" d="m501.0706 553.1979q-14.0625 5.859375 -27.828125 10.75q-13.765625 4.875 -28.609375 8.40625q-14.84375 3.515625 -31.25 5.46875q-16.40625 1.953125 -35.75 1.953125q-23.828125 0 -45.796875 -3.921875q-21.96875 -3.90625 -40.921875 -11.71875q-18.9375 -7.8125 -34.375 -19.421875q-15.421875 -11.625 -26.46875 -27.046875q-11.03125 -15.4375 -16.984375 -34.765625q-5.953125 -19.34375 -5.953125 -42.390625q0 -23.046875 5.953125 -42.375q5.953125 -19.34375 16.984375 -34.765625q11.046875 -15.4375 26.46875 -27.0625q15.4375 -11.625 34.375 -19.4375q18.953125 -7.8125 40.828125 -11.71875q21.875 -3.90625 45.890625 -3.90625q19.34375 0 35.75 1.953125q16.40625 1.953125 31.25 5.46875q14.84375 3.515625 28.609375 8.3125q13.765625 4.78125 27.828125 10.640625l0 29.296875q-11.125 -7.03125 -23.828125 -13.28125q-12.6875 -6.25 -27.4375 -10.9375q-14.75 -4.6875 -31.546875 -7.421875q-16.796875 -2.734375 -35.9375 -2.734375q-38.671875 0 -67.0 8.40625q-28.3125 8.390625 -46.765625 23.71875q-18.453125 15.328125 -27.34375 37.109375q-8.890625 21.78125 -8.890625 48.734375q0 26.953125 8.890625 48.640625q8.890625 21.671875 27.34375 37.0q18.453125 15.328125 46.765625 23.640625q28.328125 8.296875 67.0 8.296875q19.140625 0 36.234375 -2.734375q17.09375 -2.734375 32.03125 -7.421875q14.9375 -4.6875 27.53125 -10.84375q12.609375 -6.15625 22.953125 -12.984375l0 29.09375l0 0zm72.46872 21.296875l0 -268.35938l24.40625 0l0 268.35938l-24.40625 0z" fill-rule="nonzero"></path></g></svg>

